<?xml version="1.0" encoding="UTF-8"?>
<svg width="110px" height="110px" viewBox="0 0 110 110" version="1.1" xmlns="http://www.w3.org/2000/svg" xmlns:xlink="http://www.w3.org/1999/xlink">
    <title>icon-product-crunch</title>
    <g id="icon-product-crunch" stroke="none" stroke-width="1" fill="none" fill-rule="evenodd">
        <circle id="Oval" fill="#FFFFFF" cx="55" cy="55" r="53"></circle>
        <g id="Group-15" transform="translate(27, 29)">
            <path d="M1.5,1.49985 L10.6045189,1.49985 C12.2613731,1.49985 13.6045189,2.84299575 13.6045189,4.49985 L13.6045189,17.8091008 C13.6045189,19.4659551 14.9476646,20.8091008 16.6045189,20.8091008 L28.8,20.8091008 L28.8,20.8091008 L28.8,30.4638013 L16.6045189,30.4638013 C14.9476646,30.4638013 13.6045189,31.806947 13.6045189,33.4638013 L13.6045189,46.7730021 C13.6045189,48.4298564 12.2613731,49.7730021 10.6045189,49.7730021 L1.5,49.7730021 L1.5,49.7730021" id="Line-4-Copy-4" stroke="#3D5D38" stroke-width="1.5"></path>
            <line x1="14" y1="11.1546004" x2="1.5" y2="11.1546004" id="Line-4-Copy-6" stroke="#3D5D38" stroke-width="1.5"></line>
            <circle id="Oval-Copy-4" stroke="#3D5D38" stroke-width="1.5" fill="#3D5D38" cx="1.5" cy="1.5" r="1"></circle>
            <circle id="Oval-Copy-10" stroke="#3D5D38" stroke-width="1.5" fill="#3D5D38" cx="1.5" cy="11.1546004" r="1"></circle>
            <line x1="28.8" y1="20.8091008" x2="1.5" y2="20.8091008" id="Line-4-Copy-8" stroke="#3D5D38" stroke-width="1.5"></line>
            <circle id="Oval-Copy-12" stroke="#3D5D38" stroke-width="1.5" fill="#3D5D38" cx="1.5" cy="20.8092008" r="1"></circle>
            <line x1="51.5701754" y1="25.7728521" x2="30.2402461" y2="25.7730021" id="Line-4-Copy-9" stroke="#3D5D38" stroke-width="1.5"></line>
            <circle id="Oval-Copy-18" fill="#3D5D38" cx="59.5293987" cy="25.7730021" r="2.85"></circle>
            <line x1="28.8" y1="30.4638013" x2="1.5" y2="30.4638013" id="Line-4-Copy-10" stroke="#3D5D38" stroke-width="1.5"></line>
            <circle id="Oval-Copy-14" stroke="#3D5D38" stroke-width="1.5" fill="#3D5D38" cx="1.5" cy="30.4638013" r="1"></circle>
            <line x1="14" y1="40.1184017" x2="1.5" y2="40.1184017" id="Line-4-Copy-12" stroke="#3D5D38" stroke-width="1.5"></line>
            <circle id="Oval-Copy-16" stroke="#3D5D38" stroke-width="1.5" fill="#3D5D38" cx="1.5" cy="40.1184017" r="1"></circle>
            <circle id="Oval-Copy-17" stroke="#3D5D38" stroke-width="1.5" fill="#3D5D38" cx="1.5" cy="49.7730021" r="1"></circle>
            <polyline id="Path-31" stroke="#3D5D38" stroke-width="1.5" stroke-linecap="round" points="48.6804373 22.7789757 51.6743137 25.7728521 48.6804373 28.7667285"></polyline>
            <line x1="34.8844385" y1="37.9226606" x2="34.8844385" y2="13.6230436" id="Line-4-Copy-13" stroke="#3D5D38" stroke-width="1.5" stroke-linecap="round"></line>
            <line x1="26.3769003" y1="37.9226606" x2="26.3769003" y2="13.6230436" id="Line-4-Copy-14" stroke="#3D5D38" stroke-width="1.5" stroke-linecap="round"></line>
            <rect id="Rectangle" fill="#6AA560" x="20.1307194" y="15.2730021" width="21" height="21" rx="3"></rect>
            <rect id="Rectangle-Copy" fill="#EAFF00" x="25.7954357" y="20.9377185" width="9.67056731" height="9.67056731" rx="1"></rect>
        </g>
    </g>
</svg>