<?xml version="1.0" encoding="UTF-8"?>
<svg width="151px" height="28px" viewBox="0 0 151 28" version="1.1" xmlns="http://www.w3.org/2000/svg" xmlns:xlink="http://www.w3.org/1999/xlink">
    <title>logo-color-white</title>
    <defs>
        <path d="M10.6630592,5.63449125e-15 C11.5424069,2.50480866 13.3478233,4.74780478 15.1666586,6.5209588 C17.7077179,8.99819768 20.2214629,12.3920895 20.2214629,16.1342558 C20.2214629,21.4138316 16.1748537,25.7482712 11.0140231,26.2051867 C10.8341683,26.7865945 10.65168,27.3865507 10.4553409,28.0004349 L9.76647683,28.0004349 C9.57007014,27.3865508 9.38752105,26.7865951 9.20762975,26.2026555 C4.04646703,25.7481189 0,21.4137388 0,16.1342558 C0,12.3920895 2.51374501,8.99819768 5.0548043,6.5209588 C6.87363959,4.74780478 8.679056,2.50480866 9.55840374,-6.89599e-15 L10.6630592,5.63449125e-15 Z" id="path-1"></path>
    </defs>
    <g id="logo-color-white" stroke="none" stroke-width="1" fill="none" fill-rule="evenodd">
        <path d="M30.5254206,11.942435 L27.641913,11.942435 L27.641913,9.6356289 L30.5254206,9.6356289 L30.5254206,6.86746154 L33.3858602,6.86746154 L33.3858602,9.6356289 L36.6153888,9.6356289 L36.6153888,11.942435 L33.3858602,11.942435 L33.3858602,18.4014922 C33.3858602,18.7398238 33.4550644,18.9935725 33.5934728,19.1627382 C33.7011237,19.3165253 33.9394937,19.3934189 34.3085827,19.3934189 L36.6153888,19.3934189 L36.6153888,21.6310208 L33.6165409,21.6310208 C32.4938952,21.6310208 31.6980471,21.3695828 31.2289965,20.8467067 C30.7599459,20.3238307 30.5254206,19.5087592 30.5254206,18.4014922 L30.5254206,11.942435 Z M40.9291163,15.6333249 C40.9291163,16.1562009 41.0021652,16.6636983 41.1482629,17.1558169 C41.2943606,17.6479355 41.5096625,18.0785394 41.7941686,18.4476283 C42.0786747,18.8167173 42.432385,19.1127574 42.8552994,19.3357487 C43.2782139,19.55874 43.7741772,19.6702356 44.3431894,19.6702356 C44.9275803,19.6702356 45.4312329,19.5548953 45.8541474,19.3242147 C46.2770619,19.0935341 46.6307721,18.7898046 46.9152782,18.4130263 C47.1997843,18.0362479 47.4112415,17.6056441 47.5496499,17.1212148 C47.6880583,16.6367855 47.7572625,16.1408222 47.7572625,15.6333249 C47.7572625,15.0950701 47.6880583,14.5837281 47.5496499,14.0992988 C47.4112415,13.6148695 47.1997843,13.1881104 46.9152782,12.8190214 C46.6307721,12.4499324 46.2732172,12.1538923 45.8426134,11.930901 C45.4120096,11.7079097 44.9122016,11.5964141 44.3431894,11.5964141 C43.7587985,11.5964141 43.2513011,11.7079097 42.8206973,11.930901 C42.3900935,12.1538923 42.0363833,12.4537771 41.7595665,12.8305554 C41.4827498,13.2073337 41.2751372,13.6379375 41.1367289,14.1223668 C40.9983205,14.6067961 40.9291163,15.1104488 40.9291163,15.6333249 Z M50.6177021,15.6333249 C50.6177021,16.571426 50.463915,17.428789 50.1563409,18.2054137 C49.8487667,18.9820384 49.4181629,19.6510122 48.8645294,20.212335 C48.3108959,20.7736579 47.6496115,21.2081064 46.8806761,21.5156805 C46.1117408,21.8232547 45.2659118,21.9770417 44.3431894,21.9770417 C43.4050882,21.9770417 42.55157,21.8155653 41.7826346,21.4926124 C41.0136992,21.1696596 40.3524148,20.7275217 39.7987813,20.1661989 C39.2451478,19.6048761 38.8183887,18.9359023 38.5185039,18.1592776 C38.2186191,17.3826528 38.0686767,16.5406686 38.0686767,15.6333249 C38.0686767,14.7106024 38.2263084,13.8609288 38.541572,13.0843041 C38.8568355,12.3076793 39.2912839,11.6387056 39.8449174,11.0773827 C40.3985509,10.5160599 41.0598353,10.0777667 41.8287707,9.76250324 C42.5977061,9.44723973 43.4358456,9.28960798 44.3431894,9.28960798 C45.2812905,9.28960798 46.1348088,9.44723973 46.9037442,9.76250324 C47.6726796,10.0777667 48.333964,10.5199046 48.8875975,11.0889168 C49.4412309,11.6579289 49.8679901,12.3307474 50.1678749,13.1073721 C50.4677597,13.8839969 50.6177021,14.7259811 50.6177021,15.6333249 Z M58.5069791,11.942435 C57.5381205,11.942435 56.853768,12.192339 56.4539216,12.692147 C56.0540752,13.191955 55.854152,13.9032203 55.854152,14.8259427 L55.854152,21.6310208 L52.9937124,21.6310208 L52.9937124,9.6356289 L55.854152,9.6356289 L55.854152,11.0197126 C56.223241,10.3584282 56.6922916,9.92397967 57.2613038,9.71636712 C57.8303159,9.50875456 58.4762217,9.40494829 59.1990209,9.40494829 L59.9141308,9.40494829 L59.9141308,11.942435 L58.5069791,11.942435 Z M64.6892195,11.1350529 C65.1198233,10.4891472 65.6657674,10.0200966 66.3270519,9.72790115 C66.9883363,9.4357057 67.6957568,9.28960798 68.4493135,9.28960798 C69.9871843,9.28960798 71.1482767,9.72405647 71.9325908,10.5929534 C72.7169049,11.4618504 73.1090619,12.6421662 73.1090619,14.1339009 L73.1090619,21.6310208 L70.2486223,21.6310208 L70.2486223,14.3645815 C70.2486223,13.4879951 70.0602331,12.8267107 69.6834548,12.3807282 C69.3066765,11.9347457 68.6646154,11.7117544 67.7572717,11.7117544 C67.2497743,11.7117544 66.8037918,11.800182 66.4193241,11.9770371 C66.0348564,12.1538923 65.7157482,12.3922622 65.4619996,12.692147 C65.2082509,12.9920318 65.016017,13.3457421 64.885298,13.7532779 C64.754579,14.1608136 64.6892195,14.5952621 64.6892195,15.0566233 L64.6892195,21.6310208 L61.8287799,21.6310208 L61.8287799,9.6356289 L64.6892195,9.6356289 L64.6892195,11.1350529 Z M75.8541612,12.8651575 C75.9771909,12.1884944 76.2078715,11.6233269 76.5462031,11.169655 C76.8845346,10.7159831 77.295915,10.3507388 77.7803443,10.0739221 C78.2647736,9.79710533 78.8030284,9.59718213 79.3951086,9.47415247 C79.9871889,9.35112281 80.5908031,9.28960798 81.2059514,9.28960798 C81.9441294,9.28960798 82.6400159,9.36650152 83.293611,9.52028859 C83.9472061,9.67407567 84.5162183,9.92397967 85.0006475,10.2700006 C85.4850768,10.6160215 85.8656998,11.0658487 86.1425166,11.6194822 C86.4193333,12.1731157 86.5577417,12.8574681 86.5577417,13.6725396 L86.5577417,21.6310208 L83.6973021,21.6310208 L83.6973021,20.2469371 C83.2513196,20.8928428 82.663084,21.34267 81.9325954,21.5964187 C81.2021068,21.8501674 80.4600841,21.9770417 79.7065275,21.9770417 C79.0760004,21.9770417 78.4916096,21.8924588 77.9533548,21.7232931 C77.4151,21.5541273 76.9460495,21.308068 76.5462031,20.9851151 C76.1463567,20.6621622 75.8349378,20.2546265 75.6119466,19.7625078 C75.3889553,19.2703892 75.2774597,18.701377 75.2774597,18.0554713 C75.2774597,17.3941869 75.404334,16.832864 75.6580827,16.3715028 C75.9118314,15.9101416 76.2540076,15.5295186 76.6846114,15.2296338 C77.1152152,14.929749 77.6034892,14.702913 78.1494333,14.549126 C78.6953774,14.3953389 79.2528556,14.2953773 79.8218678,14.2492412 L83.6973021,13.9032203 L83.6973021,13.6725396 C83.6973021,12.8420894 83.4781555,12.2692326 83.0398623,11.9539691 C82.6015692,11.6387056 81.9902655,11.4810738 81.2059514,11.4810738 C80.9445134,11.4810738 80.6869201,11.4964525 80.4331714,11.5272099 C80.1794227,11.5579673 79.9410528,11.6233269 79.7180615,11.7232885 C79.4950702,11.8232501 79.3028364,11.9655031 79.14136,12.1500476 C78.9798835,12.3345921 78.8683879,12.572962 78.8068731,12.8651575 L75.8541612,12.8651575 Z M80.1678887,19.7855759 C81.2290195,19.7855759 82.0825378,19.4895358 82.7284435,18.8974555 C83.3743492,18.3053753 83.6973021,17.4864591 83.6973021,16.440707 L83.6973021,15.9793458 L79.9372081,16.3253667 C79.4297107,16.3715028 79.0029516,16.5368239 78.6569307,16.82133 C78.3109097,17.1058361 78.1378993,17.5172165 78.1378993,18.0554713 C78.1378993,18.6398622 78.3301331,19.070466 78.7146008,19.3472827 C79.0683111,19.6394782 79.5527404,19.7855759 80.1678887,19.7855759 Z M91.1482859,11.942435 L88.2647782,11.942435 L88.2647782,9.6356289 L91.1482859,9.6356289 L91.1482859,6.86746154 L94.0087255,6.86746154 L94.0087255,9.6356289 L97.2382541,9.6356289 L97.2382541,11.942435 L94.0087255,11.942435 L94.0087255,18.4014922 C94.0087255,18.7398238 94.0779297,18.9935725 94.2163381,19.1627382 C94.323989,19.3165253 94.562359,19.3934189 94.931448,19.3934189 L97.2382541,19.3934189 L97.2382541,21.6310208 L94.2394061,21.6310208 C93.1167605,21.6310208 92.3209124,21.3695828 91.8518618,20.8467067 C91.3828112,20.3238307 91.1482859,19.5087592 91.1482859,18.4014922 L91.1482859,11.942435 Z M107.595814,20.2469371 C107.211346,20.8928428 106.684625,21.34267 106.015651,21.5964187 C105.346678,21.8501674 104.658481,21.9770417 103.95106,21.9770417 C102.413189,21.9770417 101.252097,21.5425932 100.467783,20.6736963 C99.6834686,19.8047993 99.2913116,18.6244835 99.2913116,17.1327488 L99.2913116,9.6356289 L102.151751,9.6356289 L102.151751,16.9020682 C102.151751,17.7632759 102.34783,18.4207156 102.739987,18.8743875 C103.132144,19.3280594 103.766515,19.5548953 104.643102,19.5548953 C105.658096,19.5548953 106.403964,19.2319424 106.880704,18.5860367 C107.357444,17.940131 107.595814,17.1481276 107.595814,16.2100264 L107.595814,9.6356289 L110.456253,9.6356289 L110.456253,21.6310208 L107.595814,21.6310208 L107.595814,20.2469371 Z M119.06064,11.942435 C118.091782,11.942435 117.407429,12.192339 117.007583,12.692147 C116.607736,13.191955 116.407813,13.9032203 116.407813,14.8259427 L116.407813,21.6310208 L113.547373,21.6310208 L113.547373,9.6356289 L116.407813,9.6356289 L116.407813,11.0197126 C116.776902,10.3584282 117.245953,9.92397967 117.814965,9.71636712 C118.383977,9.50875456 119.029883,9.40494829 119.752682,9.40494829 L120.467792,9.40494829 L120.467792,11.942435 L119.06064,11.942435 Z M122.15176,12.8651575 C122.27479,12.1884944 122.505471,11.6233269 122.843802,11.169655 C123.182134,10.7159831 123.593514,10.3507388 124.077943,10.0739221 C124.562373,9.79710533 125.100628,9.59718213 125.692708,9.47415247 C126.284788,9.35112281 126.888402,9.28960798 127.503551,9.28960798 C128.241729,9.28960798 128.937615,9.36650152 129.59121,9.52028859 C130.244805,9.67407567 130.813817,9.92397967 131.298247,10.2700006 C131.782676,10.6160215 132.163299,11.0658487 132.440116,11.6194822 C132.716932,12.1731157 132.855341,12.8574681 132.855341,13.6725396 L132.855341,21.6310208 L129.994901,21.6310208 L129.994901,20.2469371 C129.548919,20.8928428 128.960683,21.34267 128.230195,21.5964187 C127.499706,21.8501674 126.757683,21.9770417 126.004127,21.9770417 C125.3736,21.9770417 124.789209,21.8924588 124.250954,21.7232931 C123.712699,21.5541273 123.243649,21.308068 122.843802,20.9851151 C122.443956,20.6621622 122.132537,20.2546265 121.909546,19.7625078 C121.686554,19.2703892 121.575059,18.701377 121.575059,18.0554713 C121.575059,17.3941869 121.701933,16.832864 121.955682,16.3715028 C122.209431,15.9101416 122.551607,15.5295186 122.982211,15.2296338 C123.412814,14.929749 123.901088,14.702913 124.447032,14.549126 C124.992977,14.3953389 125.550455,14.2953773 126.119467,14.2492412 L129.994901,13.9032203 L129.994901,13.6725396 C129.994901,12.8420894 129.775755,12.2692326 129.337461,11.9539691 C128.899168,11.6387056 128.287865,11.4810738 127.503551,11.4810738 C127.242113,11.4810738 126.984519,11.4964525 126.730771,11.5272099 C126.477022,11.5579673 126.238652,11.6233269 126.015661,11.7232885 C125.792669,11.8232501 125.600436,11.9655031 125.438959,12.1500476 C125.277483,12.3345921 125.165987,12.572962 125.104472,12.8651575 L122.15176,12.8651575 Z M126.465488,19.7855759 C127.526619,19.7855759 128.380137,19.4895358 129.026043,18.8974555 C129.671948,18.3053753 129.994901,17.4864591 129.994901,16.440707 L129.994901,15.9793458 L126.234807,16.3253667 C125.72731,16.3715028 125.300551,16.5368239 124.95453,16.82133 C124.608509,17.1058361 124.435498,17.5172165 124.435498,18.0554713 C124.435498,18.6398622 124.627732,19.070466 125.0122,19.3472827 C125.36591,19.6394782 125.85034,19.7855759 126.465488,19.7855759 Z" id="Combined-Shape" fill="#FFFFFF" fill-rule="nonzero"></path>
        <g id="Combined-Shape-Copy-26" transform="translate(0, -0.0014)">
            <mask id="mask-2" fill="white">
                <use xlink:href="#path-1"></use>
            </mask>
            <use id="Combined-Shape-Copy-25" fill="#FFFFFF" xlink:href="#path-1"></use>
            <g id="Group-Copy-2" mask="url(#mask-2)">
                <g transform="translate(-1.4085, -0.7269)" id="Group">
                    <path d="M21.7866674,12.5271168 C14.9761002,16.1486935 13.9138907,21.9209148 14.8585591,28.236807 C13.9174802,28.5214184 12.9252618,28.6888706 11.8990954,28.7221157 C11.7380637,26.7578553 11.3402944,25.0280012 10.807909,23.4522747 L10.8105534,23.4880025 C10.2460441,18.1170552 12.3521793,15.5484199 14.6802557,12.910554 L15.0062975,12.5417415 C16.2913199,11.0883237 17.6088313,9.57392872 18.5550791,7.52508447 C19.9647132,9.32212074 21.0418659,10.9893219 21.7866674,12.5271168 Z" id="Combined-Shape" fill="#EAFF00"></path>
                    <path d="M11.5192483,0 L11.7295311,0.199884851 C13.6344511,10.9398559 6.90293767,9.58030391 7.98110162,17.251839 C7.98893278,17.3075606 7.99668027,17.3628517 8.0043441,17.4177121 C7.94000337,17.2986859 7.87602447,17.1815479 7.8122117,17.064674 L7.45060747,16.400599 C5.94375846,13.6200312 4.61451386,10.9262845 4.49980979,7.50429252 C6.30026628,5.21258533 8.63985307,2.71138415 11.5192483,0 Z" id="Combined-Shape" fill="#EAFF00"></path>
                    <path d="M1.01762318,13.0295908 C1.70683053,14.6664069 2.76949137,16.1443481 3.87575637,17.6061929 L4.36183393,18.245596 C5.90559205,20.2727931 7.44061657,22.3091248 8.08427949,24.7366452 C8.05574642,24.6700843 8.02597367,24.6025087 7.99577586,24.5346833 C6.457113,21.0787899 3.19427271,21.7968535 0.240714819,19.5622487 C0.0827810027,18.8016938 0,18.0150201 0,17.2090118 C0,15.9719746 0.326645352,14.607753 0.979936057,13.1163468 L1.01762318,13.0295908 Z" id="Combined-Shape" fill="#EAFF00"></path>
                    <path d="M0.240738414,19.5622666 C3.19429009,21.7968496 6.45711709,21.0787991 7.99577586,24.5346833 C8.02552518,24.6015014 8.05486199,24.6680771 8.08378627,24.7344104 C8.38764792,25.8793246 8.49329893,27.1121061 8.30762341,28.4721839 L8.32895479,28.2807644 C4.25892662,27.1101193 1.11330393,23.7559628 0.24175206,19.5679602 Z" id="Combined-Shape" fill="#6AA560"></path>
                    <path d="M4.49970638,7.50459849 C4.75683075,15.1752875 11.1173748,19.1867608 11.9000777,28.7204501 L11.5192483,28.7282601 C10.4126713,28.7282601 9.34253752,28.5722276 8.32964821,28.2809638 L8.30762341,28.4721839 C8.90718447,24.0803841 6.46909668,21.0158975 4.11848311,17.9259851 L3.63442251,17.2858864 C2.6163377,15.9277357 1.65641715,14.5467957 1.01749854,13.0292947 C1.76642461,11.3484624 2.92691182,9.50679964 4.49970638,7.50459849 Z" id="Combined-Shape" fill="#3D5D38"></path>
                    <path d="M21.7869296,12.527658 C22.6213076,14.2505484 23.0384967,15.8109997 23.0384967,17.2090118 C23.0384967,17.5030691 23.0274783,17.7945531 23.005832,18.0830732 C20.4157529,21.3776052 14.5624832,21.779794 14.5624832,25.2002122 L14.5686999,25.0433348 C14.448701,20.0603949 16.1062018,15.6276949 21.5967926,12.6280733 L21.7869296,12.527658 Z" id="Combined-Shape" fill="#3D5D38"></path>
                    <path d="M14.8588542,28.2367151 C14.6968212,27.1535435 14.5938185,26.0863843 14.5686999,25.0433348 L14.5624832,25.2002122 C14.5624832,21.7795768 20.4164964,21.3775541 23.0066269,18.0834107 C22.6442461,22.8976592 19.3243086,26.8862121 14.8588542,28.2367151 Z" id="Combined-Shape" fill="#6AA560"></path>
                    <path d="M11.7293648,0.2 L11.5192483,5.68434189e-14 C14.4074453,2.7196723 16.7525286,5.2278747 18.5544983,7.52460721 C15.8028457,13.4841031 9.91024578,14.9221479 10.8105534,23.4880025 L10.807909,23.4522747 C10.0484354,21.2044248 9.01501232,19.2702307 8.00410616,17.4166372 L7.98110162,17.251839 C7.5205023,13.9745046 8.48521535,12.3453971 9.59297323,10.7170086 L9.80881984,10.4014032 C11.2075717,8.36088367 12.700255,6.15596013 11.7949983,0.584978118 L11.7293648,0.2 Z" id="Combined-Shape" fill="#6AA560"></path>
                </g>
            </g>
        </g>
    </g>
</svg>