<?xml version="1.0" encoding="UTF-8"?>
<svg width="500px" height="500px" viewBox="0 0 500 500" version="1.1" xmlns="http://www.w3.org/2000/svg" xmlns:xlink="http://www.w3.org/1999/xlink">
    <title>pattern-w0.2</title>
    <g id="pattern-w0.2" stroke="none" stroke-width="1" fill="none" fill-rule="evenodd" stroke-linecap="round">
        <g id="Group-2" transform="translate(-165.1512, -99)" stroke="#EAFF00" stroke-width="0.2">
            <path d="M680.357992,409.743553 C629.762985,432.990983 656.433096,515.854033 600.015642,566.652538 C543.598187,617.451042 468.75796,581.223976 407.350052,664" id="Path-19-Copy"></path>
            <path d="M438.011207,507.593556 C470.34057,450.454051 465.871677,400.617438 471.32289,359.506333 C476.6349,319.445059 491.366837,287.669347 558.748624,265.495585 C649.768194,235.543185 704.592476,184.796262 723.221471,113.254816" id="Path-10"></path>
            <path d="M390.122563,601.696068 C394.558065,579.736877 396.775815,551.344878 396.775815,516.520069 C396.775815,396.437136 305.105871,364.843999 330.895086,257.376346 C337.455744,230.037066 336.37338,207.884385 327.647993,190.918303" id="Path-11"></path>
            <path d="M335.993554,384.280289 C335.993554,309.936548 399.378075,333.751423 392.961141,224.050209 C388.683185,150.916066 405.779996,95.896938 444.251572,58.992825" id="Path-12" transform="translate(390.1226, 221.6366) rotate(-8) translate(-390.1226, -221.6366)"></path>
            <path d="M499.617473,635.963069 C480.623238,614.488798 473.172984,586.29859 477.266711,551.392444 C483.407302,499.033226 535.902241,505.40143 529.485307,395.700216 C525.207351,322.566073 542.304162,267.546945 580.775738,230.642832" id="Path-12-Copy-4" transform="translate(528.4768, 433.303) rotate(26) translate(-528.4768, -433.303)"></path>
            <path d="M366.79646,441.809691 C366.79646,323.621391 487.064408,361.479508 474.888805,187.083191 C471.462291,138.003783 486.954552,104.525067 521.365587,86.6470423" id="Path-12-Copy" transform="translate(444.081, 264.2284) rotate(-6) translate(-444.081, -264.2284)"></path>
            <path d="M363.088149,474.950769 C376.311747,436.784102 448.682288,440.345023 453.973963,381.10573 C455.817333,360.469548 466.827516,350.848666 474.211254,344.536337" id="Path-13" transform="translate(418.6497, 409.7436) rotate(-25) translate(-418.6497, -409.7436)"></path>
            <path d="M192.091718,494.255177 C192.091718,446.763309 246.52593,451.41755 249.903474,381.172797 C252.155169,334.342962 274.897896,295.507759 318.131653,264.667189" id="Path-13-Copy" transform="translate(255.1117, 379.4612) scale(-1, 1) rotate(24) translate(-255.1117, -379.4612)"></path>
            <path d="M528.476831,277.243565 C525.277187,221.636557 580.314852,189.352586 598.574941,145.100332 C616.83503,100.848079 593.107776,47.1057277 618.77006,0.83798488" id="Path-15"></path>
            <path d="M187.292211,670.493359 C187.292211,617.607892 230.823859,581.615697 249.083948,537.363443 C264.227276,500.664478 280.977427,432.904737 239.38856,375.144598" id="Path-15-Copy" transform="translate(226.4418, 522.819) scale(1, -1) rotate(43) translate(-226.4418, -522.819)"></path>
            <path d="M469.372857,267.31982 C531.74842,221.636557 471.589492,144.370967 527.451928,76.206404" id="Path-16"></path>
            <path d="M382.652841,316.555163 C419.959831,302.413249 437.094029,270.965584 437.094029,238.864103 C437.094029,206.762622 421.786961,133.298617 460.608964,86.3898366" id="Path-17"></path>
            <path d="M189.953793,613.972972 C220.958003,604.11193 235.197488,582.183727 235.197488,559.799624 C235.197488,537.415521 222.476451,486.189665 254.739724,453.480553" id="Path-17-Copy" transform="translate(222.3468, 533.7268) scale(-1, 1) rotate(55) translate(-222.3468, -533.7268)"></path>
            <path d="M332.126503,328.794246 C363.094535,280.367538 349.111323,210.676935 309.37467,164.525857 C285.960929,137.33259 267.453987,76.206404 286.23763,53.0423606" id="Path-18"></path>
            <path d="M220.574617,328.794246 C234.654879,286.730467 167.198353,258.537759 167.198353,198.461301 C167.198353,138.384844 232.595138,113.555306 215.248255,33.6115982" id="Path-19"></path>
            <path d="M473.471857,403.46996 C473.471857,363.418788 558.755194,367.343836 564.04687,308.104543 C566.743719,277.913827 577.375841,258.964736 590.322022,247.323197" id="Path-13" transform="translate(531.8969, 325.3966) rotate(4) translate(-531.8969, -325.3966)"></path>
            <path d="M271.339998,398.02123 C194.853015,411.779291 187.811857,334.345892 115.865738,334.345892" id="Path-20"></path>
            <path d="M629.183819,166.889844 C552.696835,180.647905 545.655678,103.214507 473.709559,103.214507" id="Path-20-Copy" transform="translate(551.4467, 135.8712) rotate(72) translate(-551.4467, -135.8712)"></path>
            <path d="M377.139091,638.378991 C359.80572,597.493014 354.835575,549.972776 362.228655,495.818278 C373.318276,414.586531 273.975197,381.608805 287.507327,300.224181 C301.039456,218.839557 233.081913,201.468443 233.081913,151.366846 C233.081913,130.601179 235.850603,115.927618 241.387984,107.346162" id="Path-14"></path>
            <path d="M286.623117,310.389331 C241.867997,286.851155 224.311921,262.158398 215.425264,206.762622 C206.538607,151.366846 230.784821,124.158622 242.870066,104.704678 C255.806164,83.8810942 261.328727,61.5494839 259.437756,37.7098466" id="Path-21"></path>
            <path d="M679.613665,164.514628 C655.448896,151.805589 645.96979,138.473153 641.17159,108.563143" id="Path-21-Copy" transform="translate(660.3926, 136.5389) rotate(-77) translate(-660.3926, -136.5389)"></path>
            <path d="M358.937432,538.606182 C347.449256,483.310543 316.950292,472.129819 243.494104,466.007899 C194.523311,461.926618 160.856452,439.745209 142.493526,399.463672" id="Path-22"></path>
            <path d="M680.367504,205.726605 C674.818794,154.23437 660.088002,143.822691 624.609162,138.121855 C600.956603,134.321297 584.695739,113.665594 575.826571,76.1547438" id="Path-22-Copy" transform="translate(628.097, 140.9407) rotate(88) translate(-628.097, -140.9407)"></path>
            <path d="M324.382359,184.193972 C338.94135,142.66122 296.109191,85.1131758 336.624141,39.4810563" id="Path-23"></path>
            <path d="M386.27517,159.08283 C367.134059,119.726484 392.917815,43.9867403 349.014158,0" id="Path-24"></path>
            <path d="M447.845312,621.991502 C447.845312,556.389538 529.500284,558.641132 552.43624,517.168742 C575.372196,475.696352 551.429641,425.551755 608.411216,368.860193 C646.398932,331.065818 670.381191,327.850425 680.357992,359.214013" id="Path-25"></path>
            <path d="M458.920032,584.8321 C458.920032,552.410604 477.080794,523.798206 513.402319,498.994906 C537.616668,482.459373 556.727004,460.562054 570.733325,433.302951" id="Path-26"></path>
            <path d="M530.574922,539.996473 C614.614447,554.920774 596.856215,441.862331 656.465764,432.39355" id="Path-27"></path>
            <path d="M570.733325,353.689259 C604.229161,365.661987 680.118242,286.928859 723.221471,278.185016" id="Path-28"></path>
            <path d="M265.970545,467.114102 C265.970545,432.05379 170.330809,422.578376 161.429611,379.505855" id="Path-29"></path>
            <path d="M168.215129,698.976195 C182.295391,656.912417 114.838865,628.719708 114.838865,568.64325 C114.838865,508.566793 180.23565,483.737256 162.888767,403.793548" id="Path-19-Copy-2" transform="translate(142.4935, 551.3849) scale(-1, 1) rotate(-119) translate(-142.4935, -551.3849)"></path>
        </g>
    </g>
</svg>